<svg xmlns="http://www.w3.org/2000/svg" xmlns:xlink="http://www.w3.org/1999/xlink" width="500" zoomAndPan="magnify" viewBox="0 0 375 374.999991" height="500" preserveAspectRatio="xMidYMid meet" version="1.0"><defs><g/><clipPath id="e10cf2418e"><path d="M 78.503906 76 L 196 76 L 196 212.550781 L 78.503906 212.550781 Z M 78.503906 76 " clip-rule="nonzero"/></clipPath><clipPath id="c41e0f7504"><path d="M 139 117 L 296.753906 117 L 296.753906 212.550781 L 139 212.550781 Z M 139 117 " clip-rule="nonzero"/></clipPath><clipPath id="2cd75f8dec"><path d="M 130.394531 146 L 312.644531 146 L 312.644531 230 L 130.394531 230 Z M 130.394531 146 " clip-rule="nonzero"/></clipPath></defs><path fill="#333333" d="M 257.007812 63.238281 C 252.953125 52.027344 229.535156 66.3125 229.148438 66.214844 C 226.296875 67.769531 210.226562 60.304688 208.027344 59.527344 C 205.824219 58.753906 201.546875 63.753906 201.546875 63.753906 L 214.117188 72.554688 L 203.363281 78.382812 L 195.589844 76.050781 C 191.964844 74.628906 188.980469 77.605469 188.980469 77.605469 L 195.203125 83.300781 C 195.203125 83.300781 193.183594 87.273438 192.738281 88.222656 C 191.539062 91.132812 201.9375 89.128906 201.9375 89.128906 L 220.273438 81.855469 L 218.8125 99.527344 C 218.8125 99.527344 226.078125 99.363281 227.417969 96.886719 C 227.417969 96.886719 231.300781 82.660156 234.746094 76.132812 C 238.09375 73.0625 252.800781 67.667969 254.289062 66.871094 C 255.96875 65.953125 257.382812 65.960938 257.007812 63.238281 Z M 257.007812 63.238281 " fill-opacity="1" fill-rule="nonzero"/><g clip-path="url(#e10cf2418e)"><path fill="#333333" d="M 159.039062 107.308594 C 161.648438 98.65625 163.988281 78.089844 127.757812 76.957031 C 127.757812 76.957031 149.101562 94.324219 150.707031 107.1875 C 146.039062 97.785156 131.207031 75.921875 106.066406 110.855469 C 107.40625 110.855469 135.167969 103.394531 148.136719 111.835938 C 148.136719 111.847656 148.128906 111.859375 148.128906 111.871094 C 146.164062 111.109375 125.667969 103.972656 126.734375 139.4375 C 126.734375 139.4375 139.675781 120.300781 149.988281 118.027344 C 150.027344 118.066406 150.0625 118.101562 150.101562 118.140625 C 145.667969 126.96875 129.015625 157.019531 122.167969 185.035156 C 115.707031 169.429688 106.613281 155.601562 104.542969 151.476562 C 104.566406 151.453125 104.589844 151.4375 104.605469 151.414062 C 110.449219 152.695312 117.777344 163.539062 117.777344 163.539062 C 118.382812 143.445312 106.773438 147.492188 105.660156 147.921875 C 105.660156 147.917969 105.660156 147.910156 105.65625 147.90625 C 113 143.121094 128.726562 147.355469 129.484375 147.355469 C 115.246094 127.566406 106.847656 139.949219 104.199219 145.273438 C 105.113281 137.992188 117.203125 128.152344 117.203125 128.152344 C 96.679688 128.792969 98.003906 140.445312 99.484375 145.34375 C 99.480469 145.34375 78.585938 137.960938 78.921875 167.417969 C 78.921875 167.417969 88.839844 153.324219 96.914062 151.015625 C 91.652344 154.484375 86.363281 162.027344 97.824219 177.074219 C 97.824219 177.074219 95.835938 159.15625 101.390625 152.992188 C 111.300781 173.285156 119.9375 212.5 119.9375 212.5 L 127.300781 212.5 C 127.300781 212.472656 127.300781 212.527344 127.300781 212.5 L 134.882812 212.5 C 134.882812 212.5 138.179688 156.65625 155.675781 120.824219 C 165.476562 131.703125 161.964844 163.335938 161.964844 163.335938 C 182.207031 136.773438 172.867188 123.460938 163.578125 117.332031 C 177.828125 121.40625 195.339844 146.289062 195.339844 146.289062 C 195.929688 94.273438 159.042969 107.304688 159.039062 107.308594 Z M 99.484375 145.335938 Z M 159.039062 107.308594 Z M 159.039062 107.308594 " fill-opacity="1" fill-rule="nonzero"/></g><g clip-path="url(#c41e0f7504)"><path fill="#faa710" d="M 220.359375 195.867188 L 295.527344 192.132812 C 294.078125 182.875 291.179688 174.058594 287.050781 165.933594 L 241.730469 162.714844 L 282.101562 157.40625 C 277.824219 150.902344 272.707031 144.980469 266.882812 139.800781 L 199.625 135.023438 L 250.152344 131.207031 L 229.296875 129.726562 L 250.261719 128.144531 C 239.867188 122.511719 228.164062 118.882812 215.625 117.824219 C 208.722656 117.234375 201.9375 117.457031 195.363281 118.414062 C 198.667969 125.632812 200.277344 134.972656 200.144531 146.347656 L 199.980469 161.21875 L 191.421875 149.050781 C 189.089844 145.742188 184.300781 139.597656 178.789062 133.953125 C 179.328125 143.367188 174.964844 154.210938 165.796875 166.25 L 247.558594 170.402344 L 160.195312 173.597656 L 155.292969 180.027344 L 157.203125 162.816406 C 157.207031 162.742188 158.039062 155.054688 157.703125 146.230469 C 157.527344 141.679688 157.070312 137.644531 156.363281 134.238281 C 155.824219 134.628906 155.285156 135.027344 154.75 135.425781 C 150.160156 148.015625 146.324219 163.414062 143.484375 180.773438 C 141.882812 190.566406 140.898438 199.136719 140.335938 204.941406 L 207.953125 206.15625 L 139.898438 209.917969 C 139.792969 211.207031 139.730469 212.089844 139.703125 212.511719 L 296.328125 212.511719 C 296.683594 207.847656 296.664062 203.238281 296.308594 198.714844 Z M 220.359375 195.867188 " fill-opacity="1" fill-rule="nonzero"/></g><path fill="#333333" d="M 287.507812 159.070312 C 289.746094 159.753906 291.5 161.492188 292.199219 163.726562 L 297.605469 181.074219 C 288.652344 165.484375 247.285156 154.371094 247.285156 154.371094 C 265.863281 153.34375 280.90625 157.058594 287.507812 159.070312 " fill-opacity="1" fill-rule="nonzero"/><path fill="#333333" d="M 204.921875 162.136719 L 205.785156 166.78125 C 179.019531 170.339844 143.484375 177.523438 143.484375 177.523438 L 204.921875 162.136719 " fill-opacity="1" fill-rule="nonzero"/><path fill="#333333" d="M 210.082031 166.234375 L 209.121094 161.085938 L 231.621094 155.453125 L 233.550781 165.414062 C 230.222656 164.3125 221.199219 164.875 210.082031 166.234375 " fill-opacity="1" fill-rule="nonzero"/><path fill="#333333" d="M 178.0625 220.164062 C 177.730469 222.359375 176.660156 223.96875 175.246094 224.109375 C 173.65625 224.269531 172.128906 222.527344 171.457031 220.007812 L 178.0625 220.164062 " fill-opacity="1" fill-rule="nonzero"/><path fill="#333333" d="M 296.28125 219.191406 C 296.199219 223.667969 293.558594 227.355469 289.960938 227.710938 C 286.136719 228.09375 282.625 224.5625 281.9375 219.742188 L 296.28125 219.191406 " fill-opacity="1" fill-rule="nonzero"/><g clip-path="url(#2cd75f8dec)"><path fill="#333333" d="M 132.128906 208.789062 L 132.3125 208.777344 C 132.925781 208.761719 133.433594 209.246094 133.449219 209.863281 L 133.460938 210.34375 C 133.476562 210.957031 132.992188 211.464844 132.378906 211.480469 L 132.253906 211.492188 Z M 133.527344 193.730469 C 133.527344 193.730469 155.074219 195.648438 182.074219 193.34375 C 182.074219 193.34375 175.871094 189.269531 176.902344 189.730469 C 177.933594 190.195312 219.605469 186.398438 242.964844 198.617188 C 242.964844 198.617188 219.195312 190.414062 187.867188 192.648438 C 187.867188 192.648438 188.84375 193.28125 194.035156 196.429688 C 194.035156 196.429688 158.6875 197.511719 133.527344 193.730469 Z M 247.316406 194.347656 C 246.203125 185.328125 242.402344 166.347656 240.507812 157.121094 L 244.246094 157.230469 C 245.128906 157.257812 245.910156 157.796875 246.25 158.609375 L 248.570312 164.144531 C 248.78125 164.652344 249.175781 165.058594 249.675781 165.289062 C 250.707031 165.757812 252.558594 166.453125 254.125 166.214844 C 254.515625 166.152344 254.746094 165.742188 254.609375 165.371094 L 252.207031 158.828125 C 251.539062 157.019531 249.84375 155.792969 247.921875 155.734375 L 240.171875 155.484375 C 239.703125 153.222656 239.414062 151.859375 239.414062 151.859375 C 262.59375 148.71875 279.960938 153.53125 288.125 156.609375 C 291.441406 157.859375 294.078125 160.453125 295.386719 163.746094 C 302.410156 181.449219 304.332031 197.664062 304.332031 197.664062 Z M 248.214844 206.117188 L 248.34375 203.871094 C 248.375 203.257812 248.902344 202.789062 249.511719 202.824219 L 258.453125 203.328125 C 259.066406 203.363281 259.535156 203.886719 259.5 204.5 L 259.375 206.742188 C 259.339844 207.355469 258.816406 207.824219 258.203125 207.792969 L 249.261719 207.289062 C 248.648438 207.253906 248.179688 206.730469 248.214844 206.117188 Z M 262.421875 203.453125 C 285.730469 205.847656 295.765625 203.453125 295.765625 203.453125 L 294.945312 204.953125 C 291.964844 205.414062 280.59375 206.835938 263.492188 204.984375 Z M 263.84375 205.488281 C 270.058594 206.144531 275.515625 206.371094 280.078125 206.371094 C 287.484375 206.371094 292.53125 205.773438 294.664062 205.460938 L 293.941406 206.78125 C 289.832031 207.320312 279.496094 208.257812 264.730469 206.75 Z M 265.078125 207.253906 C 270.867188 207.828125 275.96875 208.03125 280.273438 208.03125 C 286.535156 208.03125 291.113281 207.605469 293.664062 207.285156 C 293.328125 207.894531 292.722656 208.300781 292.03125 208.378906 C 288.785156 208.742188 278.785156 209.628906 266.746094 208.347656 C 266.128906 208.285156 265.566406 207.953125 265.214844 207.445312 Z M 242.964844 194.347656 C 242.964844 194.347656 216.726562 179.375 133.210938 190.574219 L 132.773438 182.65625 C 132.671875 180.835938 133.863281 179.191406 135.625 178.71875 L 235.402344 151.902344 C 235.402344 151.902344 240.957031 176.90625 242.964844 194.347656 Z M 130.539062 182.585938 L 132.160156 212.816406 C 132.324219 215.925781 134.855469 218.382812 137.96875 218.453125 L 140.542969 218.511719 C 140.925781 221.808594 142.726562 224.296875 144.613281 224.109375 C 146.332031 223.9375 147.542969 221.597656 147.539062 218.675781 C 147.539062 218.675781 147.527344 217.242188 146.777344 215.683594 C 146.777344 215.683594 147.550781 216.792969 147.929688 218.6875 L 215.832031 220.273438 C 215.832031 220.664062 215.847656 221.058594 215.890625 221.457031 C 216.394531 226.535156 220.015625 230.332031 223.976562 229.941406 C 227.789062 229.5625 230.527344 225.445312 230.28125 220.613281 C 230.28125 220.613281 230.078125 217.175781 228.378906 213.703125 C 228.378906 213.703125 230.109375 215.734375 231.105469 220.632812 L 235.867188 220.742188 L 302.636719 218.175781 C 305.867188 218.050781 308.488281 215.476562 308.621094 212.246094 C 308.691406 210.621094 308.695312 208.96875 308.648438 207.304688 L 299.988281 207.792969 C 299.375 207.824219 298.851562 207.355469 298.816406 206.742188 L 298.6875 204.5 C 298.65625 203.886719 299.125 203.363281 299.738281 203.328125 L 308.40625 202.839844 C 307.199219 187.734375 302.242188 172.238281 299.113281 163.675781 C 298.847656 162.957031 298.539062 162.257812 298.1875 161.585938 L 301.820312 161.691406 C 302.703125 161.71875 303.484375 162.257812 303.828125 163.070312 L 306.144531 168.601562 C 306.359375 169.109375 306.75 169.519531 307.253906 169.75 C 308.285156 170.21875 310.132812 170.914062 311.699219 170.671875 C 312.089844 170.613281 312.320312 170.203125 312.183594 169.828125 L 309.78125 163.285156 C 309.117188 161.476562 307.421875 160.253906 305.496094 160.195312 L 297.203125 159.929688 C 295.292969 157.078125 292.566406 154.824219 289.339844 153.484375 C 268.117188 144.664062 244.734375 146.914062 236.8125 148.046875 C 235.210938 148.277344 233.628906 148.613281 232.070312 149.054688 L 134.867188 176.535156 C 132.1875 177.292969 130.390625 179.808594 130.539062 182.585938 " fill-opacity="1" fill-rule="nonzero"/></g><g fill="#446389" fill-opacity="1"><g transform="translate(57.973063, 271.884371)"><g><path d="M 1.921875 -25.921875 L 10.625 -25.921875 C 12.90625 -25.921875 14.609375 -25.273438 15.734375 -23.984375 C 16.867188 -22.691406 17.4375 -20.832031 17.4375 -18.40625 C 17.4375 -15.625 16.78125 -13.695312 15.46875 -12.625 C 14.15625 -11.550781 12.316406 -11.015625 9.953125 -11.015625 L 7.640625 -11.015625 L 7.640625 0 L 1.921875 0 Z M 9.5625 -15.015625 C 10.570312 -15.015625 11.238281 -15.28125 11.5625 -15.8125 C 11.894531 -16.34375 12.0625 -17.238281 12.0625 -18.5 C 12.0625 -19.644531 11.898438 -20.492188 11.578125 -21.046875 C 11.265625 -21.609375 10.582031 -21.890625 9.53125 -21.890625 L 7.640625 -21.890625 L 7.640625 -15.015625 Z M 9.5625 -15.015625 "/></g></g></g><g fill="#446389" fill-opacity="1"><g transform="translate(78.608569, 271.884371)"><g><path d="M 9.34375 0.390625 C 6.550781 0.390625 4.554688 -0.328125 3.359375 -1.765625 C 2.160156 -3.210938 1.5625 -5.34375 1.5625 -8.15625 L 1.5625 -17.796875 C 1.5625 -20.609375 2.160156 -22.722656 3.359375 -24.140625 C 4.554688 -25.554688 6.550781 -26.265625 9.34375 -26.265625 C 12.15625 -26.265625 14.164062 -25.550781 15.375 -24.125 C 16.582031 -22.695312 17.1875 -20.585938 17.1875 -17.796875 L 17.1875 -8.15625 C 17.1875 -5.34375 16.582031 -3.210938 15.375 -1.765625 C 14.164062 -0.328125 12.15625 0.390625 9.34375 0.390625 Z M 9.34375 -3.6875 C 10.15625 -3.6875 10.6875 -3.957031 10.9375 -4.5 C 11.195312 -5.039062 11.328125 -5.78125 11.328125 -6.71875 L 11.328125 -19.203125 C 11.328125 -20.160156 11.195312 -20.90625 10.9375 -21.4375 C 10.6875 -21.96875 10.15625 -22.234375 9.34375 -22.234375 C 8.570312 -22.234375 8.054688 -21.960938 7.796875 -21.421875 C 7.546875 -20.878906 7.421875 -20.140625 7.421875 -19.203125 L 7.421875 -6.71875 C 7.421875 -5.78125 7.535156 -5.039062 7.765625 -4.5 C 8.003906 -3.957031 8.53125 -3.6875 9.34375 -3.6875 Z M 9.34375 -3.6875 "/></g></g></g><g fill="#446389" fill-opacity="1"><g transform="translate(99.723959, 271.884371)"><g><path d="M 1.921875 -25.921875 L 7.640625 -25.921875 L 7.640625 -3.875 L 13.59375 -3.875 L 13.59375 0 L 1.921875 0 Z M 1.921875 -25.921875 "/></g></g></g><g fill="#446389" fill-opacity="1"><g transform="translate(116.264473, 271.884371)"><g><path d="M 4.25 -21.65625 L 0.359375 -21.65625 L 0.359375 -25.921875 L 13.890625 -25.921875 L 13.890625 -21.65625 L 10.015625 -21.65625 L 10.015625 0 L 4.25 0 Z M 4.25 -21.65625 "/></g></g></g><g fill="#446389" fill-opacity="1"><g transform="translate(132.868968, 271.884371)"><g><path d="M 1.921875 -25.921875 L 13.5625 -25.921875 L 13.5625 -22.015625 L 7.640625 -22.015625 L 7.640625 -15.578125 L 12.15625 -15.578125 L 12.15625 -11.609375 L 7.640625 -11.609375 L 7.640625 -3.875 L 13.625 -3.875 L 13.625 0 L 1.921875 0 Z M 1.921875 -25.921875 "/></g></g></g><g fill="#446389" fill-opacity="1"><g transform="translate(149.537447, 271.884371)"><g><path d="M 1.921875 -25.921875 L 7.640625 -25.921875 L 7.640625 -15.328125 L 12 -25.921875 L 17.59375 -25.921875 L 12.796875 -14.203125 L 17.828125 0 L 12 0 L 8.25 -11.453125 L 7.640625 -10.4375 L 7.640625 0 L 1.921875 0 Z M 1.921875 -25.921875 "/></g></g></g><g fill="#446389" fill-opacity="1"><g transform="translate(170.044989, 271.884371)"><g><path d="M 9.40625 0.390625 C 7.46875 0.390625 5.929688 0.078125 4.796875 -0.546875 C 3.671875 -1.179688 2.878906 -2.113281 2.421875 -3.34375 C 1.960938 -4.570312 1.734375 -6.132812 1.734375 -8.03125 L 1.734375 -25.921875 L 7.390625 -25.921875 L 7.390625 -7.171875 C 7.390625 -6.117188 7.519531 -5.285156 7.78125 -4.671875 C 8.050781 -4.054688 8.59375 -3.75 9.40625 -3.75 C 10.21875 -3.75 10.75 -4.054688 11 -4.671875 C 11.257812 -5.285156 11.390625 -6.117188 11.390625 -7.171875 L 11.390625 -25.921875 L 17.09375 -25.921875 L 17.09375 -8.03125 C 17.09375 -6.132812 16.859375 -4.570312 16.390625 -3.34375 C 15.921875 -2.113281 15.125 -1.179688 14 -0.546875 C 12.875 0.078125 11.34375 0.390625 9.40625 0.390625 Z M 9.40625 0.390625 "/></g></g></g><g fill="#446389" fill-opacity="1"><g transform="translate(191.224362, 271.884371)"><g><path d="M 1.921875 -25.921875 L 5.953125 -25.921875 L 11.265625 -13.4375 L 11.265625 -25.921875 L 16 -25.921875 L 16 0 L 12.125 0 L 6.8125 -13.4375 L 6.8125 0 L 1.921875 0 Z M 1.921875 -25.921875 "/></g></g></g><g fill="#446389" fill-opacity="1"><g transform="translate(211.539947, 271.884371)"><g/></g></g><g fill="#446389" fill-opacity="1"><g transform="translate(222.097933, 271.884371)"><g><path d="M 4.25 -21.65625 L 0.359375 -21.65625 L 0.359375 -25.921875 L 13.890625 -25.921875 L 13.890625 -21.65625 L 10.015625 -21.65625 L 10.015625 0 L 4.25 0 Z M 4.25 -21.65625 "/></g></g></g><g fill="#446389" fill-opacity="1"><g transform="translate(238.702428, 271.884371)"><g><path d="M 1.921875 -25.921875 L 9.0625 -25.921875 C 11.894531 -25.921875 14.035156 -25.414062 15.484375 -24.40625 C 16.929688 -23.40625 17.65625 -21.628906 17.65625 -19.078125 C 17.65625 -17.347656 17.429688 -15.96875 16.984375 -14.9375 C 16.535156 -13.914062 15.707031 -13.117188 14.5 -12.546875 L 18.046875 0 L 12.125 0 L 9.28125 -11.609375 L 7.640625 -11.609375 L 7.640625 0 L 1.921875 0 Z M 9.25 -14.90625 C 10.394531 -14.90625 11.195312 -15.207031 11.65625 -15.8125 C 12.125 -16.425781 12.359375 -17.34375 12.359375 -18.5625 C 12.359375 -19.726562 12.144531 -20.601562 11.71875 -21.1875 C 11.289062 -21.78125 10.550781 -22.078125 9.5 -22.078125 L 7.640625 -22.078125 L 7.640625 -14.90625 Z M 9.25 -14.90625 "/></g></g></g><g fill="#446389" fill-opacity="1"><g transform="translate(260.265705, 271.884371)"><g><path d="M 5.5625 -25.921875 L 12.09375 -25.921875 L 16.921875 0 L 11.640625 0 L 10.78125 -5.46875 L 6.96875 -5.46875 L 6.078125 0 L 0.671875 0 Z M 10.234375 -8.890625 L 8.859375 -19.015625 L 7.484375 -8.890625 Z M 10.234375 -8.890625 "/></g></g></g><g fill="#446389" fill-opacity="1"><g transform="translate(280.261371, 271.884371)"><g><path d="M 1.921875 -25.921875 L 5.953125 -25.921875 L 11.265625 -13.4375 L 11.265625 -25.921875 L 16 -25.921875 L 16 0 L 12.125 0 L 6.8125 -13.4375 L 6.8125 0 L 1.921875 0 Z M 1.921875 -25.921875 "/></g></g></g><g fill="#446389" fill-opacity="1"><g transform="translate(300.576967, 271.884371)"><g><path d="M 8.796875 0.390625 C 6.328125 0.390625 4.488281 -0.265625 3.28125 -1.578125 C 2.070312 -2.890625 1.425781 -4.976562 1.34375 -7.84375 L 6.234375 -8.578125 C 6.253906 -6.929688 6.453125 -5.75 6.828125 -5.03125 C 7.203125 -4.320312 7.765625 -3.96875 8.515625 -3.96875 C 9.472656 -3.96875 9.953125 -4.597656 9.953125 -5.859375 C 9.953125 -6.859375 9.722656 -7.71875 9.265625 -8.4375 C 8.804688 -9.164062 8.085938 -9.945312 7.109375 -10.78125 L 4.859375 -12.734375 C 3.753906 -13.671875 2.894531 -14.664062 2.28125 -15.71875 C 1.675781 -16.78125 1.375 -18.035156 1.375 -19.484375 C 1.375 -21.660156 2.019531 -23.332031 3.3125 -24.5 C 4.601562 -25.675781 6.378906 -26.265625 8.640625 -26.265625 C 11.085938 -26.265625 12.753906 -25.550781 13.640625 -24.125 C 14.523438 -22.695312 15.003906 -20.957031 15.078125 -18.90625 L 10.140625 -18.296875 C 10.097656 -19.640625 9.972656 -20.601562 9.765625 -21.1875 C 9.566406 -21.78125 9.128906 -22.078125 8.453125 -22.078125 C 7.960938 -22.078125 7.582031 -21.867188 7.3125 -21.453125 C 7.039062 -21.035156 6.90625 -20.570312 6.90625 -20.0625 C 6.90625 -19.1875 7.101562 -18.445312 7.5 -17.84375 C 7.894531 -17.25 8.53125 -16.570312 9.40625 -15.8125 L 11.546875 -13.921875 C 12.828125 -12.828125 13.816406 -11.671875 14.515625 -10.453125 C 15.222656 -9.242188 15.578125 -7.804688 15.578125 -6.140625 C 15.578125 -4.921875 15.296875 -3.816406 14.734375 -2.828125 C 14.171875 -1.835938 13.375 -1.050781 12.34375 -0.46875 C 11.320312 0.101562 10.140625 0.390625 8.796875 0.390625 Z M 8.796875 0.390625 "/></g></g></g></svg>