<svg xmlns="http://www.w3.org/2000/svg" xmlns:xlink="http://www.w3.org/1999/xlink" width="500" zoomAndPan="magnify" viewBox="0 0 375 74.999997" height="100" preserveAspectRatio="xMidYMid meet" version="1.0"><defs><g/></defs><g fill="#41658e" fill-opacity="1"><g transform="translate(15.456636, 55.874994)"><g><path d="M 2.546875 -34.421875 L 14.109375 -34.421875 C 17.140625 -34.421875 19.40625 -33.5625 20.90625 -31.84375 C 22.40625 -30.132812 23.15625 -27.664062 23.15625 -24.4375 C 23.15625 -20.75 22.285156 -18.191406 20.546875 -16.765625 C 18.804688 -15.335938 16.363281 -14.625 13.21875 -14.625 L 10.15625 -14.625 L 10.15625 0 L 2.546875 0 Z M 12.703125 -19.9375 C 14.035156 -19.9375 14.921875 -20.289062 15.359375 -21 C 15.796875 -21.707031 16.015625 -22.894531 16.015625 -24.5625 C 16.015625 -26.09375 15.800781 -27.222656 15.375 -27.953125 C 14.957031 -28.691406 14.054688 -29.0625 12.671875 -29.0625 L 10.15625 -29.0625 L 10.15625 -19.9375 Z M 12.703125 -19.9375 "/></g></g></g><g fill="#41658e" fill-opacity="1"><g transform="translate(42.865273, 55.874994)"><g><path d="M 12.40625 0.515625 C 8.695312 0.515625 6.046875 -0.441406 4.453125 -2.359375 C 2.867188 -4.273438 2.078125 -7.101562 2.078125 -10.84375 L 2.078125 -23.625 C 2.078125 -27.363281 2.867188 -30.175781 4.453125 -32.0625 C 6.046875 -33.945312 8.695312 -34.890625 12.40625 -34.890625 C 16.144531 -34.890625 18.816406 -33.941406 20.421875 -32.046875 C 22.023438 -30.148438 22.828125 -27.34375 22.828125 -23.625 L 22.828125 -10.84375 C 22.828125 -7.101562 22.023438 -4.273438 20.421875 -2.359375 C 18.816406 -0.441406 16.144531 0.515625 12.40625 0.515625 Z M 12.40625 -4.890625 C 13.488281 -4.890625 14.195312 -5.25 14.53125 -5.96875 C 14.875 -6.695312 15.046875 -7.679688 15.046875 -8.921875 L 15.046875 -25.5 C 15.046875 -26.769531 14.875 -27.757812 14.53125 -28.46875 C 14.195312 -29.175781 13.488281 -29.53125 12.40625 -29.53125 C 11.382812 -29.53125 10.703125 -29.171875 10.359375 -28.453125 C 10.023438 -27.734375 9.859375 -26.75 9.859375 -25.5 L 9.859375 -8.921875 C 9.859375 -7.679688 10.015625 -6.695312 10.328125 -5.96875 C 10.640625 -5.25 11.332031 -4.890625 12.40625 -4.890625 Z M 12.40625 -4.890625 "/></g></g></g><g fill="#41658e" fill-opacity="1"><g transform="translate(70.911289, 55.874994)"><g><path d="M 2.546875 -34.421875 L 10.15625 -34.421875 L 10.15625 -5.140625 L 18.0625 -5.140625 L 18.0625 0 L 2.546875 0 Z M 2.546875 -34.421875 "/></g></g></g><g fill="#41658e" fill-opacity="1"><g transform="translate(92.880917, 55.874994)"><g><path d="M 5.65625 -28.765625 L 0.46875 -28.765625 L 0.46875 -34.421875 L 18.4375 -34.421875 L 18.4375 -28.765625 L 13.296875 -28.765625 L 13.296875 0 L 5.65625 0 Z M 5.65625 -28.765625 "/></g></g></g><g fill="#41658e" fill-opacity="1"><g transform="translate(114.935528, 55.874994)"><g><path d="M 2.546875 -34.421875 L 18.015625 -34.421875 L 18.015625 -29.234375 L 10.15625 -29.234375 L 10.15625 -20.703125 L 16.15625 -20.703125 L 16.15625 -15.421875 L 10.15625 -15.421875 L 10.15625 -5.140625 L 18.109375 -5.140625 L 18.109375 0 L 2.546875 0 Z M 2.546875 -34.421875 "/></g></g></g><g fill="#41658e" fill-opacity="1"><g transform="translate(137.075118, 55.874994)"><g><path d="M 2.546875 -34.421875 L 10.15625 -34.421875 L 10.15625 -20.359375 L 15.9375 -34.421875 L 23.375 -34.421875 L 17 -18.875 L 23.671875 0 L 15.9375 0 L 10.96875 -15.21875 L 10.15625 -13.859375 L 10.15625 0 L 2.546875 0 Z M 2.546875 -34.421875 "/></g></g></g><g fill="#41658e" fill-opacity="1"><g transform="translate(164.313793, 55.874994)"><g><path d="M 12.5 0.515625 C 9.914062 0.515625 7.875 0.0976562 6.375 -0.734375 C 4.875 -1.578125 3.816406 -2.8125 3.203125 -4.4375 C 2.597656 -6.070312 2.296875 -8.148438 2.296875 -10.671875 L 2.296875 -34.421875 L 9.8125 -34.421875 L 9.8125 -9.515625 C 9.8125 -8.128906 9.988281 -7.023438 10.34375 -6.203125 C 10.695312 -5.378906 11.414062 -4.96875 12.5 -4.96875 C 13.570312 -4.96875 14.273438 -5.378906 14.609375 -6.203125 C 14.953125 -7.023438 15.125 -8.128906 15.125 -9.515625 L 15.125 -34.421875 L 22.6875 -34.421875 L 22.6875 -10.671875 C 22.6875 -8.148438 22.375 -6.070312 21.75 -4.4375 C 21.132812 -2.8125 20.082031 -1.578125 18.59375 -0.734375 C 17.101562 0.0976562 15.070312 0.515625 12.5 0.515625 Z M 12.5 0.515625 "/></g></g></g><g fill="#41658e" fill-opacity="1"><g transform="translate(192.444788, 55.874994)"><g><path d="M 2.546875 -34.421875 L 7.90625 -34.421875 L 14.953125 -17.84375 L 14.953125 -34.421875 L 21.25 -34.421875 L 21.25 0 L 16.109375 0 L 9.046875 -17.84375 L 9.046875 0 L 2.546875 0 Z M 2.546875 -34.421875 "/></g></g></g><g fill="#41658e" fill-opacity="1"><g transform="translate(219.428512, 55.874994)"><g/></g></g><g fill="#41658e" fill-opacity="1"><g transform="translate(233.452078, 55.874994)"><g><path d="M 5.65625 -28.765625 L 0.46875 -28.765625 L 0.46875 -34.421875 L 18.4375 -34.421875 L 18.4375 -28.765625 L 13.296875 -28.765625 L 13.296875 0 L 5.65625 0 Z M 5.65625 -28.765625 "/></g></g></g><g fill="#41658e" fill-opacity="1"><g transform="translate(255.506695, 55.874994)"><g><path d="M 2.546875 -34.421875 L 12.03125 -34.421875 C 15.800781 -34.421875 18.644531 -33.753906 20.5625 -32.421875 C 22.488281 -31.097656 23.453125 -28.734375 23.453125 -25.328125 C 23.453125 -23.035156 23.15625 -21.207031 22.5625 -19.84375 C 21.96875 -18.488281 20.863281 -17.425781 19.25 -16.65625 L 23.96875 0 L 16.109375 0 L 12.328125 -15.421875 L 10.15625 -15.421875 L 10.15625 0 L 2.546875 0 Z M 12.28125 -19.8125 C 13.8125 -19.8125 14.878906 -20.210938 15.484375 -21.015625 C 16.097656 -21.828125 16.40625 -23.039062 16.40625 -24.65625 C 16.40625 -26.207031 16.117188 -27.375 15.546875 -28.15625 C 14.984375 -28.9375 14.007812 -29.328125 12.625 -29.328125 L 10.15625 -29.328125 L 10.15625 -19.8125 Z M 12.28125 -19.8125 "/></g></g></g><g fill="#41658e" fill-opacity="1"><g transform="translate(284.147615, 55.874994)"><g><path d="M 7.390625 -34.421875 L 16.0625 -34.421875 L 22.484375 0 L 15.46875 0 L 14.328125 -7.265625 L 9.265625 -7.265625 L 8.078125 0 L 0.890625 0 Z M 13.59375 -11.8125 L 11.765625 -25.25 L 9.9375 -11.8125 Z M 13.59375 -11.8125 "/></g></g></g><g fill="#41658e" fill-opacity="1"><g transform="translate(310.706398, 55.874994)"><g><path d="M 2.546875 -34.421875 L 7.90625 -34.421875 L 14.953125 -17.84375 L 14.953125 -34.421875 L 21.25 -34.421875 L 21.25 0 L 16.109375 0 L 9.046875 -17.84375 L 9.046875 0 L 2.546875 0 Z M 2.546875 -34.421875 "/></g></g></g><g fill="#41658e" fill-opacity="1"><g transform="translate(337.690122, 55.874994)"><g><path d="M 11.6875 0.515625 C 8.394531 0.515625 5.945312 -0.351562 4.34375 -2.09375 C 2.75 -3.84375 1.894531 -6.613281 1.78125 -10.40625 L 8.28125 -11.390625 C 8.3125 -9.210938 8.570312 -7.644531 9.0625 -6.6875 C 9.5625 -5.738281 10.3125 -5.265625 11.3125 -5.265625 C 12.582031 -5.265625 13.21875 -6.101562 13.21875 -7.78125 C 13.21875 -9.113281 12.910156 -10.257812 12.296875 -11.21875 C 11.691406 -12.1875 10.738281 -13.222656 9.4375 -14.328125 L 6.453125 -16.921875 C 4.984375 -18.160156 3.84375 -19.484375 3.03125 -20.890625 C 2.226562 -22.296875 1.828125 -23.957031 1.828125 -25.875 C 1.828125 -28.769531 2.679688 -30.992188 4.390625 -32.546875 C 6.109375 -34.109375 8.46875 -34.890625 11.46875 -34.890625 C 14.726562 -34.890625 16.945312 -33.941406 18.125 -32.046875 C 19.300781 -30.148438 19.929688 -27.84375 20.015625 -25.125 L 13.46875 -24.3125 C 13.414062 -26.09375 13.253906 -27.375 12.984375 -28.15625 C 12.710938 -28.9375 12.125 -29.328125 11.21875 -29.328125 C 10.570312 -29.328125 10.070312 -29.050781 9.71875 -28.5 C 9.363281 -27.945312 9.1875 -27.328125 9.1875 -26.640625 C 9.1875 -25.484375 9.445312 -24.507812 9.96875 -23.71875 C 10.488281 -22.925781 11.332031 -22.019531 12.5 -21 L 15.34375 -18.484375 C 17.039062 -17.035156 18.359375 -15.503906 19.296875 -13.890625 C 20.234375 -12.273438 20.703125 -10.363281 20.703125 -8.15625 C 20.703125 -6.539062 20.320312 -5.070312 19.5625 -3.75 C 18.8125 -2.4375 17.753906 -1.394531 16.390625 -0.625 C 15.035156 0.132812 13.46875 0.515625 11.6875 0.515625 Z M 11.6875 0.515625 "/></g></g></g></svg>